<svg xmlns="http://www.w3.org/2000/svg" xmlns:xlink="http://www.w3.org/1999/xlink" width="23" height="23" viewBox="0 0 23 23"><defs><path id="lkzca" d="M1361 304v19a2 2 0 0 1-2 2h-19a2 2 0 0 1-2-2v-19c0-1.1.9-2 2-2h19a2 2 0 0 1 2 2z"/><path id="lkzcc" d="M1344 311.83c0 .22.08.43.25.6L1349 317l4.75-4.58a.82.82 0 0 0 0-1.17.88.88 0 0 0-1.21 0l-3.54 3.4-3.54-3.4a.88.88 0 0 0-1.21 0 .82.82 0 0 0-.25.58z"/><clipPath id="lkzcb"><use fill="#fff" xlink:href="#lkzca"/></clipPath></defs><g><g transform="translate(-1338 -302)"><use fill="#f8f8f8" xlink:href="#lkzca"/><use fill="#fff" fill-opacity="0" stroke="#d3d3d3" stroke-linecap="round" stroke-linejoin="round" stroke-miterlimit="50" stroke-width="2" clip-path="url(&quot;#lkzcb&quot;)" xlink:href="#lkzca"/></g><g transform="translate(-1338 -302)"><use fill="#999" xlink:href="#lkzcc"/></g></g></svg>