<svg xmlns="http://www.w3.org/2000/svg" xmlns:xlink="http://www.w3.org/1999/xlink" width="27" height="27" viewBox="0 0 27 27"><defs><path id="ibn0a" d="M1163 704.5c-.01.1-.04.19-.07.28l-.04.15c-.02.03-.02.07-.03.1-.05.08-.12.14-.18.2l-.01.02c-.27.28-.64.4-1 .32h-3.94l.02.2v6.48c0 1.74-1.34 1.48-3 1.48h-6c-1.66 0-3 .26-3-1.48v-6.48l.02-.2h-.77v8.16c-.9-.51-1.5-.39-1.5-1.48v-5.94c0-.25.04-.5.1-.74h-3.27c-.36.08-.73-.04-1-.32v-.01c-.07-.07-.14-.13-.19-.21-.01-.03-.01-.07-.03-.1l-.04-.15c-.03-.1-.06-.18-.06-.28l-.01-.04.02-.08c.02-.38.2-.74.53-.95l9.93-6.23v-1.3h1.37v.04c.87-.27 1.5-1.1 1.5-2.07 0-1.2-.94-2.16-2.1-2.16-1.01 0-1.85.73-2.05 1.72h.02v.32a.86.86 0 0 1-1.72 0v-.32h.02a3.8 3.8 0 0 1 3.73-3.43 3.81 3.81 0 0 1 3.75 3.87c0 1.34-.67 2.51-1.68 3.2l10.13 6.36c.34.2.51.57.53.95l.02.08v.04zm-12-5.53l-6.97 4.38h2.81a2.88 2.88 0 0 1 1.91-.74h6c.73 0 1.39.28 1.9.74h1.32z"/></defs><g><g transform="translate(-1137 -688)"><use fill="#4f78a1" xlink:href="#ibn0a"/></g></g></svg>