<svg xmlns="http://www.w3.org/2000/svg" xmlns:xlink="http://www.w3.org/1999/xlink" width="19" height="19" viewBox="0 0 19 19"><defs><path id="j0n2a" d="M625 2341v-18h18v18zm15.52-6.95l1.34-.55-1.04-1.01 1.18-.85-1.25-.74.96-1.1-1.39-.43.68-1.29-1.45-.1.36-1.41-1.43.23.02-1.45-1.34.56-.3-1.42-1.18.85-.63-1.3-.95 1.1-.91-1.14-.67 1.3-1.15-.9-.35 1.41-1.33-.6-.01 1.46-1.43-.28.32 1.42-1.45.05.63 1.31-1.4.4.92 1.12-1.27.7 1.15.88-1.07.98 1.33.6-.82 1.2 1.42.27-.52 1.35 1.45-.06-.2 1.44 1.4-.4.15 1.44 1.26-.7.47 1.37 1.07-.99.78 1.23.81-1.2 1.04 1.02.52-1.36 1.24.75.19-1.45 1.38.45-.15-1.45 1.45.11-.48-1.37 1.43-.23z"/><path id="j0n2b" d="M641.3 2335.27l-1.43.23.48 1.37-1.45-.1.15 1.44-1.38-.45-.2 1.45-1.23-.75-.52 1.36-1.04-1.02-.81 1.2-.78-1.23-1.07.99-.47-1.38-1.26.71-.15-1.44-1.4.4.2-1.44-1.45.06.52-1.35-1.42-.28.82-1.2-1.33-.59 1.07-.98-1.15-.88 1.27-.7-.92-1.13 1.4-.39-.63-1.3 1.45-.06-.32-1.42 1.43.28.01-1.46 1.33.6.35-1.4 1.15.88.67-1.29.91 1.13.95-1.1.63 1.31 1.17-.85.31 1.42 1.34-.56-.02 1.45 1.43-.23-.36 1.4 1.45.11-.68 1.29 1.39.43-.96 1.1 1.25.74-1.18.85 1.04 1-1.34.56z"/><path id="j0n2d" d="M630.2 2331.6l1.6-1.2 1.92 2.56 3.43-5.49 1.7 1.06-5 8-1.7-1.06.43-.7z"/><clipPath id="j0n2c"><use fill="#fff" xlink:href="#j0n2a"/></clipPath></defs><g><g transform="translate(-625 -2323)"><use fill="#3c3" xlink:href="#j0n2b"/><use fill="#fff" fill-opacity="0" stroke="#fff" stroke-linecap="round" stroke-linejoin="round" stroke-miterlimit="50" stroke-width="2" clip-path="url(&quot;#j0n2c&quot;)" xlink:href="#j0n2b"/></g><g transform="translate(-625 -2323)"><use fill="#fff" xlink:href="#j0n2d"/></g></g></svg>