<svg xmlns="http://www.w3.org/2000/svg" xmlns:xlink="http://www.w3.org/1999/xlink" width="28" height="28" viewBox="0 0 28 28"><defs><path id="598qa" d="M400.5 574.01a12.5 12.5 0 1 1 0-25 12.5 12.5 0 0 1 0 25zm0-23.32c-5.58 0-10.83 5.26-10.83 10.84 0 5.57 5.25 10.83 10.83 10.83s10.83-5.26 10.83-10.83c0-5.58-5.25-10.84-10.83-10.84zm2.82 13.33h-3.82a.95.95 0 0 1-.95-.95v-5.79a.95.95 0 1 1 1.9 0v4.84h2.87a.95.95 0 0 1 0 1.9z"/></defs><g><g transform="translate(-386 -548)"><use fill="#fff" xlink:href="#598qa"/></g></g></svg>