<svg xmlns="http://www.w3.org/2000/svg" xmlns:xlink="http://www.w3.org/1999/xlink" width="10" height="20" viewBox="0 0 10 20"><defs><path id="ood7a" d="M1114.72 2156.93c1.2.12 1.76 1.08 1.55 2.13l-2.5 8.3c-.04.18.06.37.23.43.18.07.57-.17.88-.51l1.51-1.81c.04.3-.03.83-.03 1.04-1.13 1.7-2.28 3-4.22 3-1.32-.21-1.86-1.16-1.58-2.12l2.5-8.26c.06-.2-.04-.42-.23-.48-.18-.07-.54.17-.86.51l-1.5 1.82c-.04-.3 0-.81 0-1.01 1.13-1.7 2.99-3.04 4.25-3.04zm3.03-2.92c0 1.02-.77 1.71-1.72 1.71s-1.73-.69-1.73-1.71c0-1.03.78-1.72 1.73-1.72s1.72.7 1.72 1.72z"/></defs><g><g transform="translate(-1109 -2151)"><use fill="#3e74aa" xlink:href="#ood7a"/></g></g></svg>