<svg xmlns="http://www.w3.org/2000/svg" xmlns:xlink="http://www.w3.org/1999/xlink" width="34" height="26" viewBox="0 0 34 26"><defs><path id="62dra" d="M1522.2 86.01a2.12 2.12 0 1 0 0-4.24 2.12 2.12 0 0 0 0 4.24zm-9.15 0a2.12 2.12 0 1 0 0-4.24 2.12 2.12 0 0 0 0 4.24zm21.49-23h-5.3c-.08 0-.16 0-.23.02-.59.01-1.13.38-1.35.96l-1.48 4.03h-19.7a1.47 1.47 0 1 0 0 2.94h18.61l-.64 1.72h-16.53a1.47 1.47 0 1 0 0 2.94h15.45l-.67 1.8h-12.55a1.47 1.47 0 1 0 0 2.94h13.55c.44 0 .83-.19 1.1-.49.14-.14.26-.32.33-.52l4.95-13.4h4.46a1.47 1.47 0 1 0 0-2.94z"/></defs><g><g transform="translate(-1504 -62)"><use fill="#5b84ad" xlink:href="#62dra"/></g></g></svg>