<svg xmlns="http://www.w3.org/2000/svg">
    <symbol id="close" viewBox="0 0 15 15">
        <path d="M14.061,11.939 L11.939,14.060 L7.500,9.621 L3.061,14.060 L0.939,11.939 L5.379,7.500 L0.939,3.060 L3.061,0.939 L7.500,5.378 L11.939,0.939 L14.061,3.060 L9.621,7.500 L14.061,11.939 Z"/>
    </symbol>
    <symbol id="facebook-square" viewBox="0 0 60.734 60.733">
        <path d="M57.378,0.001H3.352C1.502,0.001,0,1.5,0,3.353v54.026c0,1.853,1.502,3.354,3.352,3.354h29.086V37.214h-7.914v-9.167h7.914 v-6.76c0-7.843,4.789-12.116,11.787-12.116c3.355,0,6.232,0.251,7.071,0.36v8.198l-4.854,0.002c-3.805,0-4.539,1.809-4.539,4.462 v5.851h9.078l-1.187,9.166h-7.892v23.52h15.475c1.852,0,3.355-1.503,3.355-3.351V3.351C60.731,1.5,59.23,0.001,57.378,0.001z" />
    </symbol>
    <symbol id="facebook-letter" viewBox="0 0 430.113 430.114">
        <path d="M158.081,83.3c0,10.839,0,59.218,0,59.218h-43.385v72.412h43.385v215.183h89.122V214.936h59.805 c0,0,5.601-34.721,8.316-72.685c-7.784,0-67.784,0-67.784,0s0-42.127,0-49.511c0-7.4,9.717-17.354,19.321-17.354 c9.586,0,29.818,0,48.557,0c0-9.859,0-43.924,0-75.385c-25.016,0-53.476,0-66.021,0C155.878-0.004,158.081,72.48,158.081,83.3z" />
    </symbol>
    <symbol id="envelope" viewBox="0 0 14 14">
        <path d="M7,9L5.268,7.484l-4.952,4.245C0.496,11.896,0.739,12,1.007,12h11.986 c0.267,0,0.509-0.104,0.688-0.271L8.732,7.484L7,9z" />
        <path d="M13.684,2.271C13.504,2.103,13.262,2,12.993,2H1.007C0.74,2,0.498,2.104,0.318,2.273L7,8 L13.684,2.271z" />
        <polygon points="0,2.878 0,11.186 4.833,7.079 " />
        <polygon points="9.167,7.079 14,11.186 14,2.875 " />
    </symbol>
    <symbol id="marker" viewBox="0 0 512 512">
        <path d="M256,0C167.641,0,96,71.625,96,160c0,24.75,5.625,48.219,15.672,69.125C112.234,230.313,256,512,256,512l142.594-279.375 C409.719,210.844,416,186.156,416,160C416,71.625,344.375,0,256,0z M256,256c-53.016,0-96-43-96-96s42.984-96,96-96 c53,0,96,43,96,96S309,256,256,256z" />
    </symbol>
    <symbol id="instagram" viewBox="0 0 438.536 438.536">
        <path d="M421.981,16.562C410.941,5.519,397.711,0,382.298,0H56.248C40.83,0,27.604,5.521,16.561,16.562 C5.52,27.6,0.001,40.828,0.001,56.243V382.29c0,15.413,5.518,28.644,16.56,39.683c11.043,11.04,24.272,16.563,39.687,16.563 h326.046c15.41,0,28.644-5.523,39.684-16.563c11.043-11.039,16.557-24.27,16.557-39.683V56.243 C438.534,40.825,433.021,27.604,421.981,16.562z M157.462,158.025c17.224-16.652,37.924-24.982,62.097-24.982 c24.36,0,45.153,8.33,62.381,24.982c17.228,16.655,25.837,36.785,25.837,60.386c0,23.598-8.609,43.729-25.837,60.379 c-17.228,16.659-38.014,24.988-62.381,24.988c-24.172,0-44.87-8.336-62.097-24.988c-17.228-16.652-25.841-36.781-25.841-60.379 C131.621,194.81,140.234,174.681,157.462,158.025z M388.865,370.589c0,4.945-1.718,9.083-5.141,12.416 c-3.433,3.33-7.519,4.996-12.282,4.996h-305.2c-4.948,0-9.091-1.666-12.419-4.996c-3.333-3.326-4.998-7.471-4.998-12.416V185.575 H89.08c-3.805,11.993-5.708,24.462-5.708,37.402c0,36.553,13.322,67.715,39.969,93.511c26.65,25.786,58.721,38.685,96.217,38.685 c24.744,0,47.583-5.903,68.527-17.703c20.937-11.807,37.486-27.839,49.676-48.112c12.183-20.272,18.274-42.4,18.274-66.38 c0-12.94-1.91-25.406-5.715-37.402h38.547v185.014H388.865z M388.865,115.626c0,5.52-1.903,10.184-5.716,13.99 c-3.805,3.809-8.466,5.711-13.989,5.711h-49.676c-5.517,0-10.185-1.903-13.99-5.711c-3.806-3.806-5.708-8.47-5.708-13.99V68.522 c0-5.33,1.902-9.945,5.708-13.848c3.806-3.901,8.474-5.854,13.99-5.854h49.676c5.523,0,10.185,1.952,13.989,5.854 c3.812,3.903,5.716,8.518,5.716,13.848V115.626z" />
    </symbol>
    <symbol id="slider-left" viewBox="0 0 12 15">
        <path d="M2 8l5-6.01h4l-5 6 5 6h-4l-5-6z" />
    </symbol>
    <symbol id="slider-right" viewBox="0 0 12 15">
        <path d="M10 8l-5-6.01h-4l5 6-5 6h4l5-6z" />
    </symbol>
    <symbol id="slider-up" viewBox="0 0 15 12">
        <path d="M7.9927,1.99104l-6.00321,5.00288v4.00412l6.00355,-5.00306l6.00355,5.00306v-4.00412l-6.00355,-5.00288v0z" />
    </symbol>
    <symbol id="slider-down" viewBox="0 0 15 12">
        <path d="M7.99266,10.00876l-6.00321,-5.00288v-4.00412l6.00355,5.00306l6.00355,-5.00306v4.00412l-6.00355,5.00288v0z" />
    </symbol>
    <symbol id="check" viewBox="0 0 21 19">
        <path d="M 2,11 4,9 8,14 18,2 20,4 8,18 Z" />
    </symbol>
    <symbol id="ruble" viewBox="0 0 510.127 510.127">
        <path d="M34.786,428.963h81.158v69.572c0,3.385,1.083,6.156,3.262,8.322c2.173,2.18,4.951,3.27,8.335,3.27h60.502 c3.14,0,5.857-1.09,8.152-3.27c2.295-2.166,3.439-4.938,3.439-8.322v-69.572h182.964c3.377,0,6.156-1.076,8.334-3.256 c2.18-2.178,3.262-4.951,3.262-8.336v-46.377c0-3.365-1.082-6.156-3.262-8.322c-2.172-2.18-4.957-3.27-8.334-3.27H199.628v-42.754 h123.184c48.305,0,87.73-14.719,118.293-44.199c30.551-29.449,45.834-67.49,45.834-114.125c0-46.604-15.283-84.646-45.834-114.125 C410.548,14.749,371.116,0,322.812,0H127.535c-3.385,0-6.157,1.089-8.335,3.256c-2.173,2.179-3.262,4.969-3.262,8.335v227.896 H34.786c-3.384,0-6.157,1.145-8.335,3.439c-2.172,2.295-3.262,5.012-3.262,8.151v53.978c0,3.385,1.083,6.158,3.262,8.336 c2.179,2.18,4.945,3.256,8.335,3.256h81.158v42.754H34.786c-3.384,0-6.157,1.09-8.335,3.27c-2.172,2.166-3.262,4.951-3.262,8.322 v46.377c0,3.385,1.083,6.158,3.262,8.336C28.629,427.887,31.401,428.963,34.786,428.963z M199.628,77.179h115.938 c25.6,0,46.248,7.485,61.953,22.46c15.697,14.976,23.549,34.547,23.549,58.691c0,24.156-7.852,43.733-23.549,58.691 c-15.705,14.988-36.354,22.473-61.953,22.473H199.628V77.179z" />
    </symbol>
    <symbol id="info" viewBox="0 0 10 20">
        <path d="M5.72 5.93c1.2.12 1.76 1.08 1.55 2.13l-2.5 8.3c-.04.18.06.37.23.43.18.07.57-.17.88-.51l1.51-1.81c.04.3-.03.83-.03 1.04-1.13 1.7-2.28 3-4.22 3-1.32-.21-1.86-1.16-1.58-2.12l2.5-8.26c.06-.2-.04-.42-.23-.48-.18-.07-.54.17-.86.51l-1.5 1.82c-.04-.3 0-.81 0-1.01 1.13-1.7 2.99-3.04 4.25-3.04zm3.03-2.92c0 1.02-.77 1.71-1.72 1.71s-1.73-.69-1.73-1.71c0-1.03.78-1.72 1.73-1.72s1.72.7 1.72 1.72z" />
    </symbol>
    <symbol id="cart" viewBox="0 0 34 26">
        <path d="M18.2 24.01a2.12 2.12 0 1 0 0-4.24 2.12 2.12 0 0 0 0 4.24zm-9.15 0a2.12 2.12 0 1 0 0-4.24 2.12 2.12 0 0 0 0 4.24zm21.49-23h-5.3c-.08 0-.16 0-.23.02-.59.01-1.13.38-1.35.96l-1.48 4.03h-19.7a1.47 1.47 0 1 0 0 2.94h18.61l-.64 1.72h-16.53a1.47 1.47 0 1 0 0 2.94h15.45l-.67 1.8h-12.55a1.47 1.47 0 1 0 0 2.94h13.55c.44 0 .83-.19 1.1-.49.14-.14.26-.32.33-.52l4.95-13.4h4.46a1.47 1.47 0 1 0 0-2.94z" />
    </symbol>
    <symbol id="costume" viewBox="0 0 138 128">
        <path d="m 27.476452,124.75 c 2.812681,-16.11985 5.375767,-52.404751 3.889374,-55.060788 -0.649816,-1.161157 -2.056993,5.2656 -4.724755,21.578559 C 24.551448,104.0455 22.603577,115.5125 22.31247,116.75 21.803353,118.91426 21.36558,119 10.824204,119 0.85951884,119 -0.08851728,118.84122 0.37507489,117.25 0.65549252,116.2875 4.299314,94.35 8.472456,68.5 12.645598,42.65 16.38399,20.917491 16.779993,20.205535 c 0.396004,-0.711955 6.93805,-3.940509 14.53788,-7.174564 l 13.817873,-5.8800989 1.777487,4.1745639 c 0.977618,2.29601 6.234575,15.534767 11.682127,29.419458 C 64.042912,54.629586 68.725,65.989789 69,65.989789 c 0.275,0 4.957088,-11.360203 10.40464,-25.244895 5.447552,-13.884691 10.704509,-27.123448 11.682127,-29.419458 l 1.777487,-4.1745639 13.817876,5.8800989 c 7.59983,3.234055 14.14187,6.462609 14.53788,7.174564 0.396,0.711956 4.13439,22.444465 8.30753,48.294465 4.17315,25.85 7.81697,47.7875 8.09739,48.75 0.46359,1.59122 -0.48445,1.75 -10.44913,1.75 -10.54138,0 -10.97915,-0.0857 -11.48827,-2.25 -0.29111,-1.2375 -2.23898,-12.7045 -4.3286,-25.482229 -2.66776,-16.312959 -4.07494,-22.739716 -4.72476,-21.578559 -1.48639,2.656037 1.0767,38.940938 3.88938,55.060788 l 0.56708,3.25 H 93.776137 76.461649 l -3.298517,-6 C 71.348948,118.7 69.475538,116 69,116 c -0.475538,0 -2.348948,2.7 -4.163132,6 l -3.298517,6 H 44.223863 26.909374 Z M 98.813358,48.75 98.5,45.5 h -7 -7 L 84.186642,48.75 83.873283,52 H 91.5 99.126717 Z M 57,10.5 C 57,5.275 57.170621,1 57.379157,1 c 0.208536,0 2.908536,1.1579882 6,2.573307 L 69,6.146614 74.620843,3.573307 C 77.712307,2.1579882 80.412307,1 80.620843,1 80.829379,1 81,5.275 81,10.5 c 0,5.225 -0.154552,9.5 -0.34345,9.5 -0.188897,0 -2.888897,-0.875762 -6,-1.946139 -5.604367,-1.928185 -5.708733,-1.928185 -11.3131,0 C 60.232347,19.124238 57.532347,20 57.34345,20 57.154552,20 57,15.725 57,10.5 Z" />
    </symbol>
    <symbol id="table_sizes" viewBox="0 0 27 27">
        <path d="M26 16.5c-.01.1-.04.19-.07.28l-.04.15c-.02.03-.02.07-.03.1-.05.08-.12.14-.18.2l-.01.02c-.27.28-.64.4-1 .32h-3.94l.02.2v6.48c0 1.74-1.34 1.48-3 1.48h-6c-1.66 0-3 .26-3-1.48v-6.48l.02-.2h-.77v8.16c-.9-.51-1.5-.39-1.5-1.48v-5.94c0-.25.04-.5.1-.74h-3.27c-.36.08-.73-.04-1-.32v-.01c-.07-.07-.14-.13-.19-.21-.01-.03-.01-.07-.03-.1l-.04-.15c-.03-.1-.06-.18-.06-.28l-.01-.04.02-.08c.02-.38.2-.74.53-.95l9.93-6.23v-1.3h1.37v.04c.87-.27 1.5-1.1 1.5-2.07 0-1.2-.94-2.16-2.1-2.16-1.01 0-1.85.73-2.05 1.72h.02v.32a.86.86 0 0 1-1.72 0v-.32h.02a3.8 3.8 0 0 1 3.73-3.43 3.81 3.81 0 0 1 3.75 3.87c0 1.34-.67 2.51-1.68 3.2l10.13 6.36c.34.2.51.57.53.95l.02.08v.04zm-12-5.53l-6.97 4.38h2.81a2.88 2.88 0 0 1 1.91-.74h6c.73 0 1.39.28 1.9.74h1.32z" />
    </symbol>
    <symbol id="tiles" viewBox="0 0 18 18">
        <path d="M0 0h8v8h-8zm10 0h8v8h-8zm-10 10h8v8h-8zm10 0h8v8h-8z" />
    </symbol>
    <symbol id="tiles-small" viewBox="0 0 11 11">
        <path d="M0 0h3v3h-3zm4 0h3v3h-3zm4 0h3v3h-3zm-8 4h3v3h-3zm4 0h3v3h-3zm4 0h3v3h-3zm-8 4h3v3h-3zm4 0h3v3h-3zm4 0h3v3h-3z" />
    </symbol>
    <symbol id="rows" viewBox="0 0 18 13">
        <path d="M0 0h18v3h-18zm0 5h18v3h-18zm0 5h18v3h-18z" />
    </symbol>

    <view id="envelope-gray" viewBox="0 0 50 50" />
	<use href="#envelope" fill="#b2b2b2" width="50" height="50" x="0" y="0" />

    <view id="check-for-checkbox" viewBox="0 50 50 50" />
	<use href="#check" fill="#163051" width="50" height="50" x="0" y="50" />
</svg>