<svg xmlns="http://www.w3.org/2000/svg">
    <symbol id="youtube" viewBox="0 0 511.627 511.627">
        <path d="M459.954,264.376c-2.471-11.233-7.949-20.653-16.416-28.264c-8.474-7.611-18.227-12.085-29.27-13.418 c-35.02-3.806-87.837-5.708-158.457-5.708c-70.618,0-123.341,1.903-158.174,5.708c-11.227,1.333-21.029,5.807-29.407,13.418 c-8.376,7.614-13.896,17.035-16.562,28.264c-4.948,22.083-7.423,55.391-7.423,99.931c0,45.299,2.475,78.61,7.423,99.93 c2.478,11.225,7.951,20.653,16.421,28.261c8.47,7.614,18.225,11.991,29.263,13.134c35.026,3.997,87.847,5.996,158.461,5.996 c70.609,0,123.44-1.999,158.453-5.996c11.043-1.143,20.748-5.52,29.126-13.134c8.377-7.607,13.897-17.036,16.56-28.261 c4.948-22.083,7.426-55.391,7.426-99.93C467.377,319.007,464.899,285.695,459.954,264.376z M165.025,293.218h-30.549v162.45 h-28.549v-162.45h-29.98v-26.837h89.079V293.218z M242.11,455.668H216.7v-15.421c-10.278,11.615-19.989,17.419-29.125,17.419 c-8.754,0-14.275-3.524-16.556-10.564c-1.521-4.568-2.286-11.519-2.286-20.844V314.627h25.41v103.924 c0,6.088,0.096,9.421,0.288,9.993c0.571,3.997,2.568,5.995,5.996,5.995c5.138,0,10.566-3.997,16.274-11.991V314.627h25.41V455.668 z M339.183,413.411c0,13.894-0.855,23.417-2.56,28.558c-3.244,10.462-9.996,15.697-20.273,15.697 c-9.137,0-17.986-5.235-26.556-15.697v13.702h-25.406v-189.29h25.406v61.955c8.189-10.273,17.036-15.413,26.556-15.413 c10.277,0,17.029,5.331,20.273,15.988c1.704,4.948,2.56,14.369,2.56,28.264V413.411z M435.685,390.003h-51.104v24.839 c0,13.134,4.374,19.697,13.131,19.697c6.279,0,10.089-3.422,11.42-10.28c0.376-1.902,0.571-7.706,0.571-17.412h25.981v3.71 c0,9.329-0.195,14.846-0.572,16.563c-0.567,5.133-2.56,10.273-5.995,15.413c-6.852,10.089-17.139,15.133-30.841,15.133 c-13.127,0-23.407-4.855-30.833-14.558c-5.517-7.043-8.275-18.083-8.275-33.12v-49.396c0-15.036,2.662-26.076,7.987-33.119 c7.427-9.705,17.61-14.558,30.557-14.558c12.755,0,22.85,4.853,30.263,14.558c5.146,7.043,7.71,18.083,7.71,33.119V390.003 L435.685,390.003z"/>
        <path d="M302.634,336.043c-4.38,0-8.658,2.101-12.847,6.283v85.934c4.188,4.186,8.467,6.279,12.847,6.279 c7.419,0,11.14-6.372,11.14-19.13v-60.236C313.773,342.418,310.061,336.043,302.634,336.043z"/>
        <path d="M397.428,336.043c-8.565,0-12.847,6.475-12.847,19.41v13.134h25.693v-13.134 C410.274,342.511,405.99,336.043,397.428,336.043z"/>
        <path d="M148.473,113.917v77.375h28.549v-77.375L211.563,0h-29.121l-19.41,75.089L142.759,0h-30.262 c5.33,15.99,11.516,33.785,18.559,53.391C140.003,79.656,145.805,99.835,148.473,113.917z"/>
        <path d="M249.82,193.291c13.134,0,23.219-4.854,30.262-14.561c5.332-7.043,7.994-18.274,7.994-33.689V95.075 c0-15.225-2.669-26.363-7.994-33.406c-7.043-9.707-17.128-14.561-30.262-14.561c-12.756,0-22.75,4.854-29.98,14.561 c-5.327,7.043-7.992,18.181-7.992,33.406v49.965c0,15.225,2.662,26.457,7.992,33.689 C227.073,188.437,237.063,193.291,249.82,193.291z M237.541,89.935c0-13.134,4.093-19.701,12.279-19.701 s12.275,6.567,12.275,19.701v59.955c0,13.328-4.089,19.985-12.275,19.985s-12.279-6.661-12.279-19.985V89.935z"/>
        <path d="M328.328,193.291c9.523,0,19.328-5.901,29.413-17.705v15.703h25.981V48.822h-25.981v108.777 c-5.712,8.186-11.133,12.275-16.279,12.275c-3.429,0-5.428-2.093-5.996-6.28c-0.191-0.381-0.287-3.715-0.287-9.994V48.822h-25.981 v112.492c0,9.705,0.767,16.84,2.286,21.411C313.961,189.768,319.574,193.291,328.328,193.291z"/>
    </symbol>
    <symbol id="odnoklassniki" viewBox="0 0 95.481 95.481">
        <path d="M43.041,67.254c-7.402-0.772-14.076-2.595-19.79-7.064c-0.709-0.556-1.441-1.092-2.088-1.713 c-2.501-2.402-2.753-5.153-0.774-7.988c1.693-2.426,4.535-3.075,7.489-1.682c0.572,0.27,1.117,0.607,1.639,0.969 c10.649,7.317,25.278,7.519,35.967,0.329c1.059-0.812,2.191-1.474,3.503-1.812c2.551-0.655,4.93,0.282,6.299,2.514 c1.564,2.549,1.544,5.037-0.383,7.016c-2.956,3.034-6.511,5.229-10.461,6.761c-3.735,1.448-7.826,2.177-11.875,2.661 c0.611,0.665,0.899,0.992,1.281,1.376c5.498,5.524,11.02,11.025,16.5,16.566c1.867,1.888,2.257,4.229,1.229,6.425 c-1.124,2.4-3.64,3.979-6.107,3.81c-1.563-0.108-2.782-0.886-3.865-1.977c-4.149-4.175-8.376-8.273-12.441-12.527 c-1.183-1.237-1.752-1.003-2.796,0.071c-4.174,4.297-8.416,8.528-12.683,12.735c-1.916,1.889-4.196,2.229-6.418,1.15 c-2.362-1.145-3.865-3.556-3.749-5.979c0.08-1.639,0.886-2.891,2.011-4.014c5.441-5.433,10.867-10.88,16.295-16.322 C42.183,68.197,42.518,67.813,43.041,67.254z"/>
        <path d="M47.55,48.329c-13.205-0.045-24.033-10.992-23.956-24.218C23.67,10.739,34.505-0.037,47.84,0 c13.362,0.036,24.087,10.967,24.02,24.478C71.792,37.677,60.889,48.375,47.55,48.329z M59.551,24.143 c-0.023-6.567-5.253-11.795-11.807-11.801c-6.609-0.007-11.886,5.316-11.835,11.943c0.049,6.542,5.324,11.733,11.896,11.709 C54.357,35.971,59.573,30.709,59.551,24.143z"/>
    </symbol>
    <symbol id="twitter" viewBox="0 0 449.956 449.956">
        <path d="M449.956,85.657c-17.702,7.614-35.408,12.369-53.102,14.279c19.985-11.991,33.503-28.931,40.546-50.819 c-18.281,10.847-37.787,18.268-58.532,22.267c-18.274-19.414-40.73-29.125-67.383-29.125c-25.502,0-47.246,8.992-65.24,26.98 c-17.984,17.987-26.977,39.731-26.977,65.235c0,6.851,0.76,13.896,2.284,21.128c-37.688-1.903-73.042-11.372-106.068-28.407 C82.46,110.158,54.433,87.46,31.403,59.101c-8.375,14.272-12.564,29.787-12.564,46.536c0,15.798,3.711,30.456,11.138,43.97 c7.422,13.512,17.417,24.455,29.98,32.831c-14.849-0.572-28.743-4.475-41.684-11.708v1.142c0,22.271,6.995,41.824,20.983,58.674 c13.99,16.848,31.645,27.453,52.961,31.833c-7.995,2.091-16.086,3.138-24.269,3.138c-5.33,0-11.136-0.475-17.416-1.42 c5.9,18.459,16.75,33.633,32.546,45.535c15.799,11.896,33.691,18.028,53.677,18.418c-33.498,26.262-71.66,39.393-114.486,39.393 c-8.186,0-15.607-0.373-22.27-1.139c42.827,27.596,90.03,41.394,141.612,41.394c32.738,0,63.478-5.181,92.21-15.557 c28.746-10.369,53.297-24.267,73.665-41.686c20.362-17.415,37.925-37.448,52.674-60.097c14.75-22.651,25.738-46.298,32.977-70.946 c7.23-24.653,10.848-49.344,10.848-74.092c0-5.33-0.096-9.325-0.287-11.991C421.785,120.202,437.202,104.306,449.956,85.657z"/>
    </symbol>
    <symbol id="vk" viewBox="0 0 548.358 548.358">
        <path d="M545.451,400.298c-0.664-1.431-1.283-2.618-1.858-3.569c-9.514-17.135-27.695-38.167-54.532-63.102l-0.567-0.571 l-0.284-0.28l-0.287-0.287h-0.288c-12.18-11.611-19.893-19.418-23.123-23.415c-5.91-7.614-7.234-15.321-4.004-23.13 c2.282-5.9,10.854-18.36,25.696-37.397c7.807-10.089,13.99-18.175,18.556-24.267c32.931-43.78,47.208-71.756,42.828-83.939 l-1.701-2.847c-1.143-1.714-4.093-3.282-8.846-4.712c-4.764-1.427-10.853-1.663-18.278-0.712l-82.224,0.568 c-1.332-0.472-3.234-0.428-5.712,0.144c-2.475,0.572-3.713,0.859-3.713,0.859l-1.431,0.715l-1.136,0.859 c-0.952,0.568-1.999,1.567-3.142,2.995c-1.137,1.423-2.088,3.093-2.848,4.996c-8.952,23.031-19.13,44.444-30.553,64.238 c-7.043,11.803-13.511,22.032-19.418,30.693c-5.899,8.658-10.848,15.037-14.842,19.126c-4,4.093-7.61,7.372-10.852,9.849 c-3.237,2.478-5.708,3.525-7.419,3.142c-1.715-0.383-3.33-0.763-4.859-1.143c-2.663-1.714-4.805-4.045-6.42-6.995 c-1.622-2.95-2.714-6.663-3.285-11.136c-0.568-4.476-0.904-8.326-1-11.563c-0.089-3.233-0.048-7.806,0.145-13.706 c0.198-5.903,0.287-9.897,0.287-11.991c0-7.234,0.141-15.085,0.424-23.555c0.288-8.47,0.521-15.181,0.716-20.125 c0.194-4.949,0.284-10.185,0.284-15.705s-0.336-9.849-1-12.991c-0.656-3.138-1.663-6.184-2.99-9.137 c-1.335-2.95-3.289-5.232-5.853-6.852c-2.569-1.618-5.763-2.902-9.564-3.856c-10.089-2.283-22.936-3.518-38.547-3.71 c-35.401-0.38-58.148,1.906-68.236,6.855c-3.997,2.091-7.614,4.948-10.848,8.562c-3.427,4.189-3.905,6.475-1.431,6.851 c11.422,1.711,19.508,5.804,24.267,12.275l1.715,3.429c1.334,2.474,2.666,6.854,3.999,13.134c1.331,6.28,2.19,13.227,2.568,20.837 c0.95,13.897,0.95,25.793,0,35.689c-0.953,9.9-1.853,17.607-2.712,23.127c-0.859,5.52-2.143,9.993-3.855,13.418 c-1.715,3.426-2.856,5.52-3.428,6.28c-0.571,0.76-1.047,1.239-1.425,1.427c-2.474,0.948-5.047,1.431-7.71,1.431 c-2.667,0-5.901-1.334-9.707-4c-3.805-2.666-7.754-6.328-11.847-10.992c-4.093-4.665-8.709-11.184-13.85-19.558 c-5.137-8.374-10.467-18.271-15.987-29.691l-4.567-8.282c-2.855-5.328-6.755-13.086-11.704-23.267 c-4.952-10.185-9.329-20.037-13.134-29.554c-1.521-3.997-3.806-7.04-6.851-9.134l-1.429-0.859c-0.95-0.76-2.475-1.567-4.567-2.427 c-2.095-0.859-4.281-1.475-6.567-1.854l-78.229,0.568c-7.994,0-13.418,1.811-16.274,5.428l-1.143,1.711 C0.288,140.146,0,141.668,0,143.763c0,2.094,0.571,4.664,1.714,7.707c11.42,26.84,23.839,52.725,37.257,77.659 c13.418,24.934,25.078,45.019,34.973,60.237c9.897,15.229,19.985,29.602,30.264,43.112c10.279,13.515,17.083,22.176,20.412,25.981 c3.333,3.812,5.951,6.662,7.854,8.565l7.139,6.851c4.568,4.569,11.276,10.041,20.127,16.416 c8.853,6.379,18.654,12.659,29.408,18.85c10.756,6.181,23.269,11.225,37.546,15.126c14.275,3.905,28.169,5.472,41.684,4.716h32.834 c6.659-0.575,11.704-2.669,15.133-6.283l1.136-1.431c0.764-1.136,1.479-2.901,2.139-5.276c0.668-2.379,1-5,1-7.851 c-0.195-8.183,0.428-15.558,1.852-22.124c1.423-6.564,3.045-11.513,4.859-14.846c1.813-3.33,3.859-6.14,6.136-8.418 c2.282-2.283,3.908-3.666,4.862-4.142c0.948-0.479,1.705-0.804,2.276-0.999c4.568-1.522,9.944-0.048,16.136,4.429 c6.187,4.473,11.99,9.996,17.418,16.56c5.425,6.57,11.943,13.941,19.555,22.124c7.617,8.186,14.277,14.271,19.985,18.274 l5.708,3.426c3.812,2.286,8.761,4.38,14.853,6.283c6.081,1.902,11.409,2.378,15.984,1.427l73.087-1.14 c7.229,0,12.854-1.197,16.844-3.572c3.998-2.379,6.373-5,7.139-7.851c0.764-2.854,0.805-6.092,0.145-9.712 C546.782,404.25,546.115,401.725,545.451,400.298z"/>
    </symbol>
    <symbol id="pinterest" viewBox="0 0 438.529 438.529">
        <path d="M409.141,109.203c-19.608-33.592-46.205-60.189-79.798-79.796C295.751,9.801,259.065,0,219.281,0 C179.5,0,142.812,9.801,109.22,29.407c-33.597,19.604-60.194,46.201-79.8,79.796C9.809,142.8,0.008,179.485,0.008,219.267 c0,44.35,12.085,84.611,36.258,120.767c24.172,36.172,55.863,62.912,95.073,80.232c-0.762-20.365,0.476-37.209,3.709-50.532 l28.267-119.348c-4.76-9.329-7.139-20.93-7.139-34.831c0-16.175,4.089-29.689,12.275-40.541 c8.186-10.85,18.177-16.274,29.979-16.274c9.514,0,16.841,3.14,21.982,9.42c5.142,6.283,7.705,14.181,7.705,23.7 c0,5.896-1.099,13.084-3.289,21.554c-2.188,8.471-5.041,18.273-8.562,29.409c-3.521,11.132-6.045,20.036-7.566,26.692 c-2.663,11.608-0.476,21.553,6.567,29.838c7.042,8.278,16.372,12.423,27.983,12.423c20.365,0,37.065-11.324,50.107-33.972 c13.038-22.655,19.554-50.159,19.554-82.514c0-24.938-8.042-45.21-24.129-60.813c-16.085-15.609-38.496-23.417-67.239-23.417 c-32.161,0-58.192,10.327-78.082,30.978c-19.891,20.654-29.836,45.352-29.836,74.091c0,17.132,4.854,31.505,14.56,43.112 c3.235,3.806,4.283,7.898,3.14,12.279c-0.381,1.143-1.141,3.997-2.284,8.562c-1.138,4.565-1.903,7.522-2.281,8.851 c-1.521,6.091-5.14,7.994-10.85,5.708c-14.654-6.085-25.791-16.652-33.402-31.689c-7.614-15.037-11.422-32.456-11.422-52.246 c0-12.753,2.047-25.505,6.14-38.256c4.089-12.756,10.468-25.078,19.126-36.975c8.663-11.9,19.036-22.417,31.123-31.549 c12.082-9.135,26.787-16.462,44.108-21.982s35.972-8.28,55.959-8.28c27.032,0,51.295,5.995,72.8,17.986 c21.512,11.992,37.925,27.502,49.252,46.537c11.327,19.036,16.987,39.403,16.987,61.101c0,28.549-4.948,54.243-14.842,77.086 c-9.896,22.839-23.887,40.778-41.973,53.813c-18.083,13.042-38.637,19.561-61.675,19.561c-11.607,0-22.456-2.714-32.548-8.135 c-10.085-5.427-17.034-11.847-20.839-19.273c-8.566,33.685-13.706,53.77-15.42,60.24c-3.616,13.508-11.038,29.119-22.27,46.819 c20.367,6.091,41.112,9.13,62.24,9.13c39.781,0,76.47-9.801,110.062-29.41c33.595-19.602,60.192-46.199,79.794-79.791 c19.606-33.599,29.407-70.287,29.407-110.065C438.527,179.485,428.74,142.795,409.141,109.203z"/>
    </symbol>
    <symbol id="eye" viewBox="0 0 511.626 511.626">
        <path d="M505.918,236.117c-26.651-43.587-62.485-78.609-107.497-105.065c-45.015-26.457-92.549-39.687-142.608-39.687 c-50.059,0-97.595,13.225-142.61,39.687C68.187,157.508,32.355,192.53,5.708,236.117C1.903,242.778,0,249.345,0,255.818 c0,6.473,1.903,13.04,5.708,19.699c26.647,43.589,62.479,78.614,107.495,105.064c45.015,26.46,92.551,39.68,142.61,39.68 c50.06,0,97.594-13.176,142.608-39.536c45.012-26.361,80.852-61.432,107.497-105.208c3.806-6.659,5.708-13.223,5.708-19.699 C511.626,249.345,509.724,242.778,505.918,236.117z M194.568,158.03c17.034-17.034,37.447-25.554,61.242-25.554 c3.805,0,7.043,1.336,9.709,3.999c2.662,2.664,4,5.901,4,9.707c0,3.809-1.338,7.044-3.994,9.704 c-2.662,2.667-5.902,3.999-9.708,3.999c-16.368,0-30.362,5.808-41.971,17.416c-11.613,11.615-17.416,25.603-17.416,41.971 c0,3.811-1.336,7.044-3.999,9.71c-2.667,2.668-5.901,3.999-9.707,3.999c-3.809,0-7.044-1.334-9.71-3.999 c-2.667-2.666-3.999-5.903-3.999-9.71C169.015,195.482,177.535,175.065,194.568,158.03z M379.867,349.04 c-38.164,23.12-79.514,34.687-124.054,34.687c-44.539,0-85.889-11.56-124.051-34.687s-69.901-54.2-95.215-93.222 c28.931-44.921,65.19-78.518,108.777-100.783c-11.61,19.792-17.417,41.207-17.417,64.236c0,35.216,12.517,65.329,37.544,90.362 s55.151,37.544,90.362,37.544c35.214,0,65.329-12.518,90.362-37.544s37.545-55.146,37.545-90.362 c0-23.029-5.808-44.447-17.419-64.236c43.585,22.265,79.846,55.865,108.776,100.783C449.767,294.84,418.031,325.913,379.867,349.04z" />
    </symbol>
    <symbol id="format-article" viewBox="0 0 18 18">
        <path d="M8.99847,16.99945c-4.40991,0 -7.99786,-3.58832 -7.99786,-7.99911c0,-4.41133 3.58795,-8.00018 7.99786,-8.00018c4.41161,0 8.0008,3.58885 8.0008,8.00018c0,4.41079 -3.5892,7.99911 -8.0008,7.99911zM8.99847,1.73419c-4.00538,0 -7.26389,3.25927 -7.26389,7.26615c0,4.00608 3.25851,7.26535 7.26389,7.26535c4.00708,0 7.26684,-3.25927 7.26684,-7.26535c0,-4.00688 -3.25975,-7.26615 -7.26684,-7.26615zM5.99998,4.99985h5.99992v0.99992h-5.99992zM5.99998,6.99996h5.99992v0.99992h-5.99992zM5.99998,8.99981h5.99992v1.00019h-5.99992zM5.99998,10.99992h5.99992v0.99992h-5.99992z" />
    </symbol>
    <symbol id="format-video" viewBox="0 0 18 18">
        <path d="M8.99847,16.99945c-4.40991,0 -7.99786,-3.58832 -7.99786,-7.99911c0,-4.41133 3.58795,-8.00018 7.99786,-8.00018c4.41161,0 8.0008,3.58885 8.0008,8.00018c0,4.41079 -3.5892,7.99911 -8.0008,7.99911zM8.99847,1.73419c-4.00538,0 -7.26389,3.25927 -7.26389,7.26615c0,4.00608 3.25851,7.26535 7.26389,7.26535c4.00708,0 7.26684,-3.25927 7.26684,-7.26535c0,-4.00688 -3.25975,-7.26615 -7.26684,-7.26615zM5.76374,14.23575v-10.3653l8.97712,5.18185z" />
    </symbol>
    <symbol id="attach" viewBox="0 0 15 20">
        <path d="M9.41569,16.41593c-1.11765,1.43726 -3.09792,2.01275 -4.85475,1.26368c-1.75694,-0.74907 -2.70359,-2.57229 -2.42794,-4.36851l-0.13352,-0.0569l4.44932,-10.32557l0.17338,0.07393c0.86012,-0.92502 2.23576,-1.26911 3.46666,-0.74436c1.2309,0.52493 1.92908,1.75309 1.8489,3.01061l0.17327,0.07393l-2.6584,6.16943l-0.17293,0.40135l-0.30566,0.70921l-0.9078,2.10679l-0.50724,-0.21617c-0.17361,0.36022 -0.47247,0.62278 -0.82071,0.76121l-0.02027,-0.0087l-0.00917,0.02138c-0.35662,0.13318 -0.76262,0.13572 -1.14098,-0.02555c-0.35107,-0.14967 -0.6112,-0.41621 -0.76669,-0.73204l0.02944,-0.06849l-0.07916,-0.0337c-0.13952,-0.34627 -0.15436,-0.74273 -0.01166,-1.11618l-0.44835,-0.19098l2.50099,-5.80414l1.54381,-3.58283l0.9437,0.40226l-1.61787,3.75479l-0.40452,0.93879l-0.80894,1.87739l-0.72853,1.69058l-0.08041,0.18663l-0.40452,0.93879l1.8874,0.8047l0.40452,-0.93879l0.05957,-0.13825l0.68765,-1.59599l0.06172,-0.14315l0.34722,-0.80561l0.05719,-0.133l0.40452,-0.93879l0.71947,-1.66938l1.30293,-3.02402l-0.9437,-0.40226l0.40452,-0.93879l-0.9437,-0.40226l-0.9437,-0.40226l-0.9437,-0.40244l-0.40452,0.93879l-1.30304,3.02383l-1.68186,3.90319l-1.0599,2.45976l-0.40452,0.93879l0.18131,0.07719c-0.04553,0.90345 0.31449,1.78661 0.98402,2.40323l-0.08686,0.20149l1.8874,0.8047l0.08448,-0.19606c0.90961,0.05545 1.80247,-0.29481 2.42941,-0.95437l0.18256,0.07773l0.40441,-0.93879l1.0599,-2.45976l2.9849,-6.92702l0.9437,0.40226l-4.44921,10.32557z" />
    </symbol>
    <symbol id="dislike" viewBox="0 0 456.814 456.814">
        <path d="M100.5,45.683H18.276c-4.949,0-9.231,1.809-12.851,5.426C1.809,54.724,0,59.007,0,63.954v182.729 c0,4.948,1.809,9.233,5.426,12.847c3.616,3.614,7.898,5.425,12.851,5.425H100.5c4.948,0,9.229-1.811,12.847-5.425 c3.616-3.613,5.424-7.898,5.424-12.847V63.954c0-4.947-1.809-9.229-5.424-12.845C109.73,47.491,105.449,45.683,100.5,45.683z M67.665,113.351c-3.616,3.617-7.898,5.424-12.847,5.424c-5.14,0-9.471-1.807-12.99-5.424c-3.521-3.617-5.281-7.898-5.281-12.85 c0-5.137,1.759-9.469,5.281-12.991c3.52-3.521,7.85-5.28,12.99-5.28c4.949,0,9.231,1.759,12.847,5.28 c3.621,3.521,5.426,7.854,5.426,12.991C73.091,105.449,71.282,109.73,67.665,113.351z"/>
        <path d="M441.106,204.141c2.861-8.376,4.281-15.608,4.261-21.693c0.575-14.466-3.519-27.504-12.279-39.114 c3.237-10.66,3.237-21.797,0-33.407c-2.847-10.85-7.994-19.792-15.413-26.835c1.711-21.32-2.95-38.543-13.99-51.678 c-12.183-14.465-30.929-21.892-56.246-22.27h-10.28h-21.696h-4.853c-12.56,0-26.269,1.475-41.114,4.425 c-14.838,2.952-26.405,5.713-34.68,8.282c-8.28,2.568-19.75,6.328-34.403,11.276c-23.413,8.183-38.45,12.371-45.111,12.56 c-4.949,0.193-9.231,2.046-12.847,5.569c-3.617,3.518-5.426,7.755-5.426,12.703V246.97c0,4.757,1.718,8.898,5.142,12.416 c3.424,3.524,7.517,5.476,12.275,5.858c4.565,0.384,11.799,5.996,21.698,16.844c9.9,10.849,19.511,22.368,28.836,34.551 c12.944,16.553,22.558,27.973,28.837,34.256c3.424,3.422,6.37,7.99,8.848,13.702c2.472,5.708,4.142,10.324,5.004,13.846 c0.855,3.519,2.135,9.274,3.856,17.275c1.328,7.419,2.519,13.227,3.569,17.412c1.047,4.188,2.898,9.137,5.564,14.845 c2.67,5.716,5.903,10.469,9.712,14.274c3.614,3.62,7.898,5.431,12.847,5.431c8.761,0,16.604-0.999,23.559-2.998 c6.947-1.998,12.655-4.469,17.131-7.419c4.477-2.957,8.282-6.803,11.424-11.566c3.142-4.757,5.424-9.042,6.851-12.848 c1.431-3.812,2.574-8.562,3.426-14.27c0.855-5.716,1.338-10,1.431-12.854c0.093-2.854,0.144-6.563,0.144-11.136 c0-7.228-0.948-14.51-2.851-21.84c-1.909-7.323-3.72-12.895-5.428-16.707c-1.711-3.806-4.281-9.227-7.706-16.269 c-0.575-1.144-1.523-2.861-2.854-5.144c-1.328-2.283-2.382-4.381-3.142-6.283c-0.763-1.902-1.522-4.186-2.279-6.852h79.086 c14.843,0,27.645-5.428,38.397-16.279c10.756-10.848,16.228-23.694,16.419-38.54C456.811,229.931,451.575,215.75,441.106,204.141z"/>
    </symbol>
    <symbol id="like" viewBox="0 0 456.814 456.814">
        <path d="M441.11,252.677c10.468-11.99,15.704-26.169,15.704-42.54c0-14.846-5.432-27.692-16.259-38.547 c-10.849-10.854-23.695-16.278-38.541-16.278h-79.082c0.76-2.664,1.522-4.948,2.282-6.851c0.753-1.903,1.811-3.999,3.138-6.283 c1.328-2.285,2.283-3.999,2.852-5.139c3.425-6.468,6.047-11.801,7.857-15.985c1.807-4.192,3.606-9.9,5.42-17.133 c1.811-7.229,2.711-14.465,2.711-21.698c0-4.566-0.055-8.281-0.145-11.134c-0.089-2.855-0.574-7.139-1.423-12.85 c-0.862-5.708-2.006-10.467-3.43-14.272c-1.43-3.806-3.716-8.092-6.851-12.847c-3.142-4.764-6.947-8.613-11.424-11.565 c-4.476-2.95-10.184-5.424-17.131-7.421c-6.954-1.999-14.801-2.998-23.562-2.998c-4.948,0-9.227,1.809-12.847,5.426 c-3.806,3.806-7.047,8.564-9.709,14.272c-2.666,5.711-4.523,10.66-5.571,14.849c-1.047,4.187-2.238,9.994-3.565,17.415 c-1.719,7.998-2.998,13.752-3.86,17.273c-0.855,3.521-2.525,8.136-4.997,13.845c-2.477,5.713-5.424,10.278-8.851,13.706 c-6.28,6.28-15.891,17.701-28.837,34.259c-9.329,12.18-18.94,23.695-28.837,34.545c-9.899,10.852-17.131,16.466-21.698,16.847 c-4.755,0.38-8.848,2.331-12.275,5.854c-3.427,3.521-5.14,7.662-5.14,12.419v183.01c0,4.949,1.807,9.182,5.424,12.703 c3.615,3.525,7.898,5.38,12.847,5.571c6.661,0.191,21.698,4.374,45.111,12.566c14.654,4.941,26.12,8.706,34.4,11.272 c8.278,2.566,19.849,5.328,34.684,8.282c14.849,2.949,28.551,4.428,41.11,4.428h4.855h21.7h10.276 c25.321-0.38,44.061-7.806,56.247-22.268c11.036-13.135,15.697-30.361,13.99-51.679c7.422-7.042,12.565-15.984,15.416-26.836 c3.231-11.604,3.231-22.74,0-33.397c8.754-11.611,12.847-24.649,12.272-39.115C445.395,268.286,443.971,261.055,441.11,252.677z" />
        <path d="M100.5,191.864H18.276c-4.952,0-9.235,1.809-12.851,5.426C1.809,200.905,0,205.188,0,210.137v182.732 c0,4.942,1.809,9.227,5.426,12.847c3.619,3.611,7.902,5.421,12.851,5.421H100.5c4.948,0,9.229-1.81,12.847-5.421 c3.616-3.62,5.424-7.904,5.424-12.847V210.137c0-4.949-1.809-9.231-5.424-12.847C109.73,193.672,105.449,191.864,100.5,191.864z M67.665,369.308c-3.616,3.521-7.898,5.281-12.847,5.281c-5.14,0-9.471-1.76-12.99-5.281c-3.521-3.521-5.281-7.85-5.281-12.99 c0-4.948,1.759-9.232,5.281-12.847c3.52-3.617,7.85-5.428,12.99-5.428c4.949,0,9.231,1.811,12.847,5.428 c3.617,3.614,5.426,7.898,5.426,12.847C73.091,361.458,71.286,365.786,67.665,369.308z"/>
    </symbol>
    <symbol id="share" viewBox="0 0 32 32">
        <path d="M28,24c-0.973,0-1.832,0.391-2.523,0.965l-6.098-4.352C19.766,19.816,20,18.941,20,18 c0-1.293-0.422-2.488-1.117-3.465l7.133-7.137C26.609,7.746,27.262,8,28,8c2.211,0,4-1.789,4-4s-1.789-4-4-4s-4,1.789-4,4 c0,0.738,0.254,1.391,0.602,1.984l-7.133,7.137C16.484,12.418,15.297,12,14,12c-2.289,0-4.258,1.301-5.27,3.191l-4.816-1.609 C3.719,12.684,2.957,12,2,12c-1.105,0-2,0.895-2,2s0.895,2,2,2c0.504,0,0.953-0.203,1.305-0.512l4.789,1.598 C8.047,17.387,8,17.688,8,18c0,3.312,2.688,6,6,6c1.648,0,3.145-0.668,4.23-1.746l6.059,4.324C24.117,27.023,24,27.496,24,28 c0,2.207,1.789,4,4,4s4-1.793,4-4S30.211,24,28,24z"/>
    </symbol>
    <symbol id="printer" viewBox="0 0 485.212 485.212">
        <rect x="151.636" y="363.906" width="151.618" height="30.331"/>
        <path d="M121.312,30.327h242.595v60.651h30.321V30.327C394.229,13.595,380.666,0,363.907,0H121.312 c-16.748,0-30.327,13.595-30.327,30.327v60.651h30.327V30.327z"/>
        <rect x="151.636" y="303.257" width="181.939" height="30.327"/>
        <path d="M454.882,121.304H30.334c-16.748,0-30.327,13.591-30.327,30.324v181.956c0,16.759,13.579,30.321,30.327,30.321h60.651 v90.98c0,16.764,13.579,30.326,30.327,30.326h242.595c16.759,0,30.321-13.562,30.321-30.326v-90.98h60.653 c16.76,0,30.322-13.562,30.322-30.321V151.628C485.204,134.895,471.642,121.304,454.882,121.304z M363.907,454.886H121.312V272.93 h242.595V454.886z M424.551,212.282c-16.76,0-30.322-13.564-30.322-30.327c0-16.731,13.562-30.327,30.322-30.327 c16.765,0,30.331,13.595,30.331,30.327C454.882,198.717,441.315,212.282,424.551,212.282z"/>
    </symbol>
    <symbol id="close" viewBox="0 0 15 15">
        <path d="M14.061,11.939 L11.939,14.060 L7.500,9.621 L3.061,14.060 L0.939,11.939 L5.379,7.500 L0.939,3.060 L3.061,0.939 L7.500,5.378 L11.939,0.939 L14.061,3.060 L9.621,7.500 L14.061,11.939 Z"/>
    </symbol>
    <symbol id="facebook-square" viewBox="0 0 60.734 60.733">
        <path d="M57.378,0.001H3.352C1.502,0.001,0,1.5,0,3.353v54.026c0,1.853,1.502,3.354,3.352,3.354h29.086V37.214h-7.914v-9.167h7.914 v-6.76c0-7.843,4.789-12.116,11.787-12.116c3.355,0,6.232,0.251,7.071,0.36v8.198l-4.854,0.002c-3.805,0-4.539,1.809-4.539,4.462 v5.851h9.078l-1.187,9.166h-7.892v23.52h15.475c1.852,0,3.355-1.503,3.355-3.351V3.351C60.731,1.5,59.23,0.001,57.378,0.001z" />
    </symbol>
    <symbol id="facebook-letter" viewBox="0 0 430.113 430.114">
        <path d="M158.081,83.3c0,10.839,0,59.218,0,59.218h-43.385v72.412h43.385v215.183h89.122V214.936h59.805 c0,0,5.601-34.721,8.316-72.685c-7.784,0-67.784,0-67.784,0s0-42.127,0-49.511c0-7.4,9.717-17.354,19.321-17.354 c9.586,0,29.818,0,48.557,0c0-9.859,0-43.924,0-75.385c-25.016,0-53.476,0-66.021,0C155.878-0.004,158.081,72.48,158.081,83.3z" />
    </symbol>
    <symbol id="envelope" viewBox="0 0 14 14">
        <path d="M7,9L5.268,7.484l-4.952,4.245C0.496,11.896,0.739,12,1.007,12h11.986 c0.267,0,0.509-0.104,0.688-0.271L8.732,7.484L7,9z" />
        <path d="M13.684,2.271C13.504,2.103,13.262,2,12.993,2H1.007C0.74,2,0.498,2.104,0.318,2.273L7,8 L13.684,2.271z" />
        <polygon points="0,2.878 0,11.186 4.833,7.079 " />
        <polygon points="9.167,7.079 14,11.186 14,2.875 " />
    </symbol>
    <symbol id="marker" viewBox="0 0 512 512">
        <path d="M256,0C167.641,0,96,71.625,96,160c0,24.75,5.625,48.219,15.672,69.125C112.234,230.313,256,512,256,512l142.594-279.375 C409.719,210.844,416,186.156,416,160C416,71.625,344.375,0,256,0z M256,256c-53.016,0-96-43-96-96s42.984-96,96-96 c53,0,96,43,96,96S309,256,256,256z" />
    </symbol>
    <symbol id="instagram" viewBox="0 0 438.536 438.536">
        <path d="M421.981,16.562C410.941,5.519,397.711,0,382.298,0H56.248C40.83,0,27.604,5.521,16.561,16.562 C5.52,27.6,0.001,40.828,0.001,56.243V382.29c0,15.413,5.518,28.644,16.56,39.683c11.043,11.04,24.272,16.563,39.687,16.563 h326.046c15.41,0,28.644-5.523,39.684-16.563c11.043-11.039,16.557-24.27,16.557-39.683V56.243 C438.534,40.825,433.021,27.604,421.981,16.562z M157.462,158.025c17.224-16.652,37.924-24.982,62.097-24.982 c24.36,0,45.153,8.33,62.381,24.982c17.228,16.655,25.837,36.785,25.837,60.386c0,23.598-8.609,43.729-25.837,60.379 c-17.228,16.659-38.014,24.988-62.381,24.988c-24.172,0-44.87-8.336-62.097-24.988c-17.228-16.652-25.841-36.781-25.841-60.379 C131.621,194.81,140.234,174.681,157.462,158.025z M388.865,370.589c0,4.945-1.718,9.083-5.141,12.416 c-3.433,3.33-7.519,4.996-12.282,4.996h-305.2c-4.948,0-9.091-1.666-12.419-4.996c-3.333-3.326-4.998-7.471-4.998-12.416V185.575 H89.08c-3.805,11.993-5.708,24.462-5.708,37.402c0,36.553,13.322,67.715,39.969,93.511c26.65,25.786,58.721,38.685,96.217,38.685 c24.744,0,47.583-5.903,68.527-17.703c20.937-11.807,37.486-27.839,49.676-48.112c12.183-20.272,18.274-42.4,18.274-66.38 c0-12.94-1.91-25.406-5.715-37.402h38.547v185.014H388.865z M388.865,115.626c0,5.52-1.903,10.184-5.716,13.99 c-3.805,3.809-8.466,5.711-13.989,5.711h-49.676c-5.517,0-10.185-1.903-13.99-5.711c-3.806-3.806-5.708-8.47-5.708-13.99V68.522 c0-5.33,1.902-9.945,5.708-13.848c3.806-3.901,8.474-5.854,13.99-5.854h49.676c5.523,0,10.185,1.952,13.989,5.854 c3.812,3.903,5.716,8.518,5.716,13.848V115.626z" />
    </symbol>
    <symbol id="slider-left" viewBox="0 0 12 15">
        <path d="M2 8l5-6.01h4l-5 6 5 6h-4l-5-6z" />
    </symbol>
    <symbol id="slider-right" viewBox="0 0 12 15">
        <path d="M10 8l-5-6.01h-4l5 6-5 6h4l5-6z" />
    </symbol>
    <symbol id="slider-up" viewBox="0 0 15 12">
        <path d="M7.9927,1.99104l-6.00321,5.00288v4.00412l6.00355,-5.00306l6.00355,5.00306v-4.00412l-6.00355,-5.00288v0z" />
    </symbol>
    <symbol id="slider-down" viewBox="0 0 15 12">
        <path d="M7.99266,10.00876l-6.00321,-5.00288v-4.00412l6.00355,5.00306l6.00355,-5.00306v4.00412l-6.00355,5.00288v0z" />
    </symbol>
    <symbol id="check" viewBox="0 0 21 19">
        <path d="M 2,11 4,9 8,14 18,2 20,4 8,18 Z" />
    </symbol>
    <symbol id="ruble" viewBox="0 0 510.127 510.127">
        <path d="M34.786,428.963h81.158v69.572c0,3.385,1.083,6.156,3.262,8.322c2.173,2.18,4.951,3.27,8.335,3.27h60.502 c3.14,0,5.857-1.09,8.152-3.27c2.295-2.166,3.439-4.938,3.439-8.322v-69.572h182.964c3.377,0,6.156-1.076,8.334-3.256 c2.18-2.178,3.262-4.951,3.262-8.336v-46.377c0-3.365-1.082-6.156-3.262-8.322c-2.172-2.18-4.957-3.27-8.334-3.27H199.628v-42.754 h123.184c48.305,0,87.73-14.719,118.293-44.199c30.551-29.449,45.834-67.49,45.834-114.125c0-46.604-15.283-84.646-45.834-114.125 C410.548,14.749,371.116,0,322.812,0H127.535c-3.385,0-6.157,1.089-8.335,3.256c-2.173,2.179-3.262,4.969-3.262,8.335v227.896 H34.786c-3.384,0-6.157,1.145-8.335,3.439c-2.172,2.295-3.262,5.012-3.262,8.151v53.978c0,3.385,1.083,6.158,3.262,8.336 c2.179,2.18,4.945,3.256,8.335,3.256h81.158v42.754H34.786c-3.384,0-6.157,1.09-8.335,3.27c-2.172,2.166-3.262,4.951-3.262,8.322 v46.377c0,3.385,1.083,6.158,3.262,8.336C28.629,427.887,31.401,428.963,34.786,428.963z M199.628,77.179h115.938 c25.6,0,46.248,7.485,61.953,22.46c15.697,14.976,23.549,34.547,23.549,58.691c0,24.156-7.852,43.733-23.549,58.691 c-15.705,14.988-36.354,22.473-61.953,22.473H199.628V77.179z" />
    </symbol>
    <symbol id="info" viewBox="0 0 10 20">
        <path d="M5.72 5.93c1.2.12 1.76 1.08 1.55 2.13l-2.5 8.3c-.04.18.06.37.23.43.18.07.57-.17.88-.51l1.51-1.81c.04.3-.03.83-.03 1.04-1.13 1.7-2.28 3-4.22 3-1.32-.21-1.86-1.16-1.58-2.12l2.5-8.26c.06-.2-.04-.42-.23-.48-.18-.07-.54.17-.86.51l-1.5 1.82c-.04-.3 0-.81 0-1.01 1.13-1.7 2.99-3.04 4.25-3.04zm3.03-2.92c0 1.02-.77 1.71-1.72 1.71s-1.73-.69-1.73-1.71c0-1.03.78-1.72 1.73-1.72s1.72.7 1.72 1.72z" />
    </symbol>
    <symbol id="cart" viewBox="0 0 34 26">
        <path d="M18.2 24.01a2.12 2.12 0 1 0 0-4.24 2.12 2.12 0 0 0 0 4.24zm-9.15 0a2.12 2.12 0 1 0 0-4.24 2.12 2.12 0 0 0 0 4.24zm21.49-23h-5.3c-.08 0-.16 0-.23.02-.59.01-1.13.38-1.35.96l-1.48 4.03h-19.7a1.47 1.47 0 1 0 0 2.94h18.61l-.64 1.72h-16.53a1.47 1.47 0 1 0 0 2.94h15.45l-.67 1.8h-12.55a1.47 1.47 0 1 0 0 2.94h13.55c.44 0 .83-.19 1.1-.49.14-.14.26-.32.33-.52l4.95-13.4h4.46a1.47 1.47 0 1 0 0-2.94z" />
    </symbol>
    <symbol id="costume" viewBox="0 0 138 128">
        <path d="m 27.476452,124.75 c 2.812681,-16.11985 5.375767,-52.404751 3.889374,-55.060788 -0.649816,-1.161157 -2.056993,5.2656 -4.724755,21.578559 C 24.551448,104.0455 22.603577,115.5125 22.31247,116.75 21.803353,118.91426 21.36558,119 10.824204,119 0.85951884,119 -0.08851728,118.84122 0.37507489,117.25 0.65549252,116.2875 4.299314,94.35 8.472456,68.5 12.645598,42.65 16.38399,20.917491 16.779993,20.205535 c 0.396004,-0.711955 6.93805,-3.940509 14.53788,-7.174564 l 13.817873,-5.8800989 1.777487,4.1745639 c 0.977618,2.29601 6.234575,15.534767 11.682127,29.419458 C 64.042912,54.629586 68.725,65.989789 69,65.989789 c 0.275,0 4.957088,-11.360203 10.40464,-25.244895 5.447552,-13.884691 10.704509,-27.123448 11.682127,-29.419458 l 1.777487,-4.1745639 13.817876,5.8800989 c 7.59983,3.234055 14.14187,6.462609 14.53788,7.174564 0.396,0.711956 4.13439,22.444465 8.30753,48.294465 4.17315,25.85 7.81697,47.7875 8.09739,48.75 0.46359,1.59122 -0.48445,1.75 -10.44913,1.75 -10.54138,0 -10.97915,-0.0857 -11.48827,-2.25 -0.29111,-1.2375 -2.23898,-12.7045 -4.3286,-25.482229 -2.66776,-16.312959 -4.07494,-22.739716 -4.72476,-21.578559 -1.48639,2.656037 1.0767,38.940938 3.88938,55.060788 l 0.56708,3.25 H 93.776137 76.461649 l -3.298517,-6 C 71.348948,118.7 69.475538,116 69,116 c -0.475538,0 -2.348948,2.7 -4.163132,6 l -3.298517,6 H 44.223863 26.909374 Z M 98.813358,48.75 98.5,45.5 h -7 -7 L 84.186642,48.75 83.873283,52 H 91.5 99.126717 Z M 57,10.5 C 57,5.275 57.170621,1 57.379157,1 c 0.208536,0 2.908536,1.1579882 6,2.573307 L 69,6.146614 74.620843,3.573307 C 77.712307,2.1579882 80.412307,1 80.620843,1 80.829379,1 81,5.275 81,10.5 c 0,5.225 -0.154552,9.5 -0.34345,9.5 -0.188897,0 -2.888897,-0.875762 -6,-1.946139 -5.604367,-1.928185 -5.708733,-1.928185 -11.3131,0 C 60.232347,19.124238 57.532347,20 57.34345,20 57.154552,20 57,15.725 57,10.5 Z" />
    </symbol>
    <symbol id="table_sizes" viewBox="0 0 27 27">
        <path d="M26 16.5c-.01.1-.04.19-.07.28l-.04.15c-.02.03-.02.07-.03.1-.05.08-.12.14-.18.2l-.01.02c-.27.28-.64.4-1 .32h-3.94l.02.2v6.48c0 1.74-1.34 1.48-3 1.48h-6c-1.66 0-3 .26-3-1.48v-6.48l.02-.2h-.77v8.16c-.9-.51-1.5-.39-1.5-1.48v-5.94c0-.25.04-.5.1-.74h-3.27c-.36.08-.73-.04-1-.32v-.01c-.07-.07-.14-.13-.19-.21-.01-.03-.01-.07-.03-.1l-.04-.15c-.03-.1-.06-.18-.06-.28l-.01-.04.02-.08c.02-.38.2-.74.53-.95l9.93-6.23v-1.3h1.37v.04c.87-.27 1.5-1.1 1.5-2.07 0-1.2-.94-2.16-2.1-2.16-1.01 0-1.85.73-2.05 1.72h.02v.32a.86.86 0 0 1-1.72 0v-.32h.02a3.8 3.8 0 0 1 3.73-3.43 3.81 3.81 0 0 1 3.75 3.87c0 1.34-.67 2.51-1.68 3.2l10.13 6.36c.34.2.51.57.53.95l.02.08v.04zm-12-5.53l-6.97 4.38h2.81a2.88 2.88 0 0 1 1.91-.74h6c.73 0 1.39.28 1.9.74h1.32z" />
    </symbol>
    <symbol id="tiles" viewBox="0 0 18 18">
        <path d="M0 0h8v8h-8zm10 0h8v8h-8zm-10 10h8v8h-8zm10 0h8v8h-8z" />
    </symbol>
    <symbol id="tiles-small" viewBox="0 0 11 11">
        <path d="M0 0h3v3h-3zm4 0h3v3h-3zm4 0h3v3h-3zm-8 4h3v3h-3zm4 0h3v3h-3zm4 0h3v3h-3zm-8 4h3v3h-3zm4 0h3v3h-3zm4 0h3v3h-3z" />
    </symbol>
    <symbol id="rows" viewBox="0 0 18 13">
        <path d="M0 0h18v3h-18zm0 5h18v3h-18zm0 5h18v3h-18z" />
    </symbol>

    <view id="envelope-gray" viewBox="0 0 50 50" />
	<use href="#envelope" fill="#b2b2b2" width="50" height="50" x="0" y="0" />

    <view id="check-for-checkbox" viewBox="0 50 50 50" />
	<use href="#check" fill="#163051" width="50" height="50" x="0" y="50" />
</svg>